<?xml version="1.0" standalone="no"?><!DOCTYPE svg PUBLIC "-//W3C//DTD SVG 1.1//EN" "http://www.w3.org/Graphics/SVG/1.1/DTD/svg11.dtd"><svg t="1594870406647" class="icon" viewBox="0 0 1024 1024" version="1.1" xmlns="http://www.w3.org/2000/svg" p-id="2343" xmlns:xlink="http://www.w3.org/1999/xlink" width="64" height="64"><defs><style type="text/css"></style></defs><path d="M832 476.416l-94.848-64.618667a115.498667 115.498667 0 0 0-87.061333-18.154666 115.498667 115.498667 0 0 0-74.368 48.725333l-110.506667 162.24-63.658667-43.349333a115.328 115.328 0 0 0-87.04-18.133334 115.413333 115.413333 0 0 0-74.346666 48.725334L213.333333 631.253333V277.312a21.333333 21.333333 0 0 1 21.312-21.312h576.042667a21.333333 21.333333 0 0 1 21.312 21.312v199.104z m0 270.272a21.333333 21.333333 0 0 1-21.312 21.312H405.525333l70.933334-104.128 24-35.242667 110.528-162.24a73.066667 73.066667 0 0 1 47.061333-30.826666 72.981333 72.981333 0 0 1 55.082667 11.477333L832 528.021333v218.666667zM353.898667 768h-119.253334a21.333333 21.333333 0 0 1-21.312-21.312v-39.68l62.08-91.136a73.088 73.088 0 0 1 47.061334-30.826667 73.173333 73.173333 0 0 1 55.061333 11.456l63.658667 43.349334L353.898667 768z m456.789333-554.666667H234.645333A64.064 64.064 0 0 0 170.666667 277.312v469.376c0 10.474667 2.773333 20.224 7.253333 28.949333A63.829333 63.829333 0 0 0 234.645333 810.666667H810.688A64.064 64.064 0 0 0 874.666667 746.688V277.312A64.064 64.064 0 0 0 810.688 213.333333z" p-id="2344" fill="#bfbfbf"></path><path d="M309.333333 384a32 32 0 1 0-0.021333-64.021333A32 32 0 0 0 309.333333 384" p-id="2345" fill="#bfbfbf"></path></svg>